ffmpeg version 6.0-essentials_build-www.gyan.dev Copyright (c) 2000-2023 the FFmpeg developers  built with gcc 12.2.0 (Rev10, Built by MSYS2 project)  configuration: --enable-gpl --enable-version3 --enable-static --disable-w32threads --disable-autodetect --enable-fontconfig --enable-iconv --enable-gnutls --enable-libxml2 --enable-gmp --enable-bzlib --enable-lzma --enable-zlib --enable-libsrt --enable-libssh --enable-libzmq --enable-avisynth --enable-sdl2 --enable-libwebp --enable-libx264 --enable-libx265 --enable-libxvid --enable-libaom --enable-libopenjpeg --enable-libvpx --enable-mediafoundation --enable-libass --enable-libfreetype --enable-libfribidi --enable-libvidstab --enable-libvmaf --enable-libzimg --enable-amf --enable-cuda-llvm --enable-cuvid --enable-ffnvcodec --enable-nvdec --enable-nvenc --enable-d3d11va --enable-dxva2 --enable-libvpl --enable-libgme --enable-libopenmpt --enable-libopencore-amrwb --enable-libmp3lame --enable-libtheora --enable-libvo-amrwbenc --enable-libgsm --enable-libopencore-amrnb --enable-libopus --enable-libspeex --enable-libvorbis --enable-librubberband  libavutil      58.  2.100 / 58.  2.100  libavcodec     60.  3.100 / 60.  3.100  libavformat    60.  3.100 / 60.  3.100  libavdevice    60.  1.100 / 60.  1.100  libavfilter     9.  3.100 /  9.  3.100  libswscale      7.  1.100 /  7.  1.100  libswresample   4. 10.100 /  4. 10.100  libpostproc    57.  1.100 / 57.  1.100-vsync is deprecated. Use -fps_mode[mov,mp4,m4a,3gp,3g2,mj2 @ 000002644a76b980] stream 0, timescale not setInput #0, mov,mp4,m4a,3gp,3g2,mj2, from 'C:\Users\gameS\OneDrive\Desktop\Chipsterankur3\myvideo\samplemp.mp4':  Metadata:    major_brand     : isom    minor_version   : 512    compatible_brands: isomiso2avc1mp41    encoder         : Lavf58.76.100    comment         : Downloaded using YoutubeDownloader (https://github.com/Tyrrrz/YoutubeDownloader)                     : Video: MNIT JAIPUR To IISC Bengaluru | College Students Trip  by Train | First Vlog Video                     : Video URL: https://www.youtube.com/watch?v=Flswzg_2J5w&list=PLSKB-1Sb_l0wQ0g60tbh0PqstQjreZDm3                     : Channel: IITian-NITian Brothers                     : Channel URL: https://www.youtube.com/channel/UCSrU90BU1cVjgg6XkKh5RLg    artist          : N    sort_artist     : N    album           : Gaunerzinken    title           : Banglore wali video test title  Duration: 00:20:08.46, start: 0.000000, bitrate: 2940 kb/s  Stream #0:0[0x1](und): Video: h264 (High) (avc1 / 0x31637661), yuv420p(tv, bt709, progressive), 1920x1080 [SAR 1:1 DAR 16:9], 2804 kb/s, 30 fps, 30 tbr, 15360 tbn (default)    Metadata:      handler_name    : ISO Media file produced by Google Inc.      vendor_id       : [0][0][0][0]  Stream #0:1[0x2](eng): Audio: aac (LC) (mp4a / 0x6134706D), 44100 Hz, stereo, fltp, 128 kb/s (default)    Metadata:      handler_name    : ISO Media file produced by Google Inc.      vendor_id       : [0][0][0][0]  Stream #0:2[0x0]: Video: mjpeg (Baseline), yuvj420p(pc, bt470bg/unknown/unknown), 480x360 [SAR 1:1 DAR 4:3], 90k tbr, 90k tbn (attached pic)Stream mapping:  Stream #0:0 -> #0:0 (h264 (native) -> wrapped_avframe (native))  Stream #0:1 -> #0:1 (aac (native) -> pcm_s16le (native))Press [q] to stop, [?] for help[Parsed_metadata_1 @ 000002644bf1ff40] frame:0    pts:188416  pts_time:12.2667[Parsed_metadata_1 @ 000002644bf1ff40] lavfi.scene_score=0.517633Output #0, null, to '/dev/null':  Metadata:    major_brand     : isom    minor_version   : 512    compatible_brands: isomiso2avc1mp41    title           : Banglore wali video test title    comment         : Downloaded using YoutubeDownloader (https://github.com/Tyrrrz/YoutubeDownloader)                     : Video: MNIT JAIPUR To IISC Bengaluru | College Students Trip  by Train | First Vlog Video                     : Video URL: https://www.youtube.com/watch?v=Flswzg_2J5w&list=PLSKB-1Sb_l0wQ0g60tbh0PqstQjreZDm3                     : Channel: IITian-NITian Brothers                     : Channel URL: https://www.youtube.com/channel/UCSrU90BU1cVjgg6XkKh5RLg    artist          : N    sort_artist     : N    album           : Gaunerzinken    encoder         : Lavf60.3.100  Stream #0:0(und): Video: wrapped_avframe, yuv420p(tv, bt709, progressive), 1920x1080 [SAR 1:1 DAR 16:9], q=2-31, 200 kb/s, 30 fps, 30 tbn (default)    Metadata:      handler_name    : ISO Media file produced by Google Inc.      vendor_id       : [0][0][0][0]      encoder         : Lavc60.3.100 wrapped_avframe  Stream #0:1(eng): Audio: pcm_s16le, 44100 Hz, stereo, s16, 1411 kb/s (default)    Metadata:      handler_name    : ISO Media file produced by Google Inc.      vendor_id       : [0][0][0][0]      encoder         : Lavc60.3.100 pcm_s16leframe=    0 fps=0.0 q=-0.0 size=N/A time=00:00:12.51 bitrate=N/A speed=2.11x    [Parsed_metadata_1 @ 000002644bf1ff40] frame:1    pts:190976  pts_time:12.4333[Parsed_metadata_1 @ 000002644bf1ff40] lavfi.scene_score=0.476845[Parsed_metadata_1 @ 000002644bf1ff40] frame:2    pts:192000  pts_time:12.5[Parsed_metadata_1 @ 000002644bf1ff40] lavfi.scene_score=0.438723[Parsed_metadata_1 @ 000002644bf1ff40] frame:3    pts:195072  pts_time:12.7[Parsed_metadata_1 @ 000002644bf1ff40] lavfi.scene_score=0.315250[Parsed_metadata_1 @ 000002644bf1ff40] frame:4    pts:200192  pts_time:13.0333[Parsed_metadata_1 @ 000002644bf1ff40] lavfi.scene_score=0.400441[Parsed_metadata_1 @ 000002644bf1ff40] frame:5    pts:201216  pts_time:13.1[Parsed_metadata_1 @ 000002644bf1ff40] lavfi.scene_score=0.445295[Parsed_metadata_1 @ 000002644bf1ff40] frame:6    pts:204288  pts_time:13.3[Parsed_metadata_1 @ 000002644bf1ff40] lavfi.scene_score=0.377803frame=    7 fps=1.1 q=-0.0 size=N/A time=00:00:13.60 bitrate=N/A speed= 2.1x    [Parsed_metadata_1 @ 000002644bf1ff40] frame:7    pts:205312  pts_time:13.3667[Parsed_metadata_1 @ 000002644bf1ff40] lavfi.scene_score=0.437361frame=    8 fps=1.1 q=-0.0 size=N/A time=00:00:15.04 bitrate=N/A speed=2.15x    frame=    8 fps=1.1 q=-0.0 size=N/A time=00:00:16.46 bitrate=N/A speed=2.18x    [Parsed_metadata_1 @ 000002644bf1ff40] frame:8    pts:265216  pts_time:17.2667[Parsed_metadata_1 @ 000002644bf1ff40] lavfi.scene_score=0.442617[Parsed_metadata_1 @ 000002644bf1ff40] frame:9    pts:265728  pts_time:17.3[Parsed_metadata_1 @ 000002644bf1ff40] lavfi.scene_score=0.314909[Parsed_metadata_1 @ 000002644bf1ff40] frame:10   pts:267776  pts_time:17.4333[Parsed_metadata_1 @ 000002644bf1ff40] lavfi.scene_score=0.371675frame=   11 fps=1.4 q=-0.0 size=N/A time=00:00:17.85 bitrate=N/A speed=2.19x    frame=   11 fps=1.2 q=-0.0 size=N/A time=00:00:19.31 bitrate=N/A speed=2.19x    frame=   11 fps=1.2 q=-0.0 size=N/A time=00:00:20.71 bitrate=N/A speed= 2.2x    frame=   11 fps=1.1 q=-0.0 size=N/A time=00:00:21.73 bitrate=N/A speed=2.19x    frame=   11 fps=1.1 q=-0.0 size=N/A time=00:00:22.56 bitrate=N/A speed=2.16x    frame=   11 fps=1.0 q=-0.0 size=N/A time=00:00:23.45 bitrate=N/A speed=2.14x    frame=   11 fps=1.0 q=-0.0 size=N/A time=00:00:24.79 bitrate=N/A speed=2.16x    frame=   11 fps=0.9 q=-0.0 size=N/A time=00:00:25.82 bitrate=N/A speed= 2.1x    [Parsed_metadata_1 @ 000002644bf1ff40] frame:11   pts:393216  pts_time:25.6[Parsed_metadata_1 @ 000002644bf1ff40] lavfi.scene_score=0.389930frame=   12 fps=0.9 q=-0.0 size=N/A time=00:00:27.09 bitrate=N/A speed=2.12x    frame=   12 fps=0.9 q=-0.0 size=N/A time=00:00:28.51 bitrate=N/A speed= 2.1x    [Parsed_metadata_1 @ 000002644bf1ff40] frame:12   pts:444416  pts_time:28.9333[Parsed_metadata_1 @ 000002644bf1ff40] lavfi.scene_score=1.000000frame=   13 fps=0.9 q=-0.0 size=N/A time=00:00:29.79 bitrate=N/A speed=2.12x    frame=   13 fps=0.9 q=-0.0 size=N/A time=00:00:31.02 bitrate=N/A speed=2.13x    frame=   13 fps=0.9 q=-0.0 size=N/A time=00:00:31.90 bitrate=N/A speed=2.12x    frame=   13 fps=0.8 q=-0.0 size=N/A time=00:00:32.94 bitrate=N/A speed=2.11x    frame=   13 fps=0.8 q=-0.0 size=N/A time=00:00:33.99 bitrate=N/A speed=2.11x    frame=   13 fps=0.8 q=-0.0 size=N/A time=00:00:34.96 bitrate=N/A speed=2.11x    frame=   13 fps=0.8 q=-0.0 size=N/A time=00:00:36.31 bitrate=N/A speed=2.12x    frame=   13 fps=0.7 q=-0.0 size=N/A time=00:00:37.52 bitrate=N/A speed=2.13x    frame=   13 fps=0.7 q=-0.0 size=N/A time=00:00:38.22 bitrate=N/A speed=2.11x    frame=   13 fps=0.7 q=-0.0 size=N/A time=00:00:39.59 bitrate=N/A speed=2.13x    frame=   13 fps=0.7 q=-0.0 size=N/A time=00:00:40.70 bitrate=N/A speed=2.13x    frame=   13 fps=0.7 q=-0.0 size=N/A time=00:00:41.98 bitrate=N/A speed=2.14x    frame=   13 fps=0.6 q=-0.0 size=N/A time=00:00:43.39 bitrate=N/A speed=2.13x    [Parsed_metadata_1 @ 000002644bf1ff40] frame:13   pts:681472  pts_time:44.3667[Parsed_metadata_1 @ 000002644bf1ff40] lavfi.scene_score=0.488584frame=   14 fps=0.7 q=-0.0 size=N/A time=00:00:44.67 bitrate=N/A speed=2.14x    frame=   14 fps=0.7 q=-0.0 size=N/A time=00:00:45.60 bitrate=N/A speed=2.13x    frame=   14 fps=0.6 q=-0.0 size=N/A time=00:00:46.32 bitrate=N/A speed=2.12x    frame=   14 fps=0.6 q=-0.0 size=N/A time=00:00:47.67 bitrate=N/A speed=2.11x    frame=   14 fps=0.6 q=-0.0 size=N/A time=00:00:49.20 bitrate=N/A speed=2.12x    frame=   14 fps=0.6 q=-0.0 size=N/A time=00:00:50.66 bitrate=N/A speed=2.13x    frame=   14 fps=0.6 q=-0.0 size=N/A time=00:00:52.54 bitrate=N/A speed=2.17x    frame=   14 fps=0.6 q=-0.0 size=N/A time=00:00:53.77 bitrate=N/A speed=2.17x    [Parsed_metadata_1 @ 000002644bf1ff40] frame:14   pts:829952  pts_time:54.0333[Parsed_metadata_1 @ 000002644bf1ff40] lavfi.scene_score=0.597414[Parsed_metadata_1 @ 000002644bf1ff40] frame:15   pts:842240  pts_time:54.8333[Parsed_metadata_1 @ 000002644bf1ff40] lavfi.scene_score=0.345697[Parsed_metadata_1 @ 000002644bf1ff40] frame:16   pts:843776  pts_time:54.9333[Parsed_metadata_1 @ 000002644bf1ff40] lavfi.scene_score=0.316852frame=   17 fps=0.7 q=-0.0 size=N/A time=00:00:55.37 bitrate=N/A speed=2.19x    [Parsed_metadata_1 @ 000002644bf1ff40] frame:17   pts:860672  pts_time:56.0333[Parsed_metadata_1 @ 000002644bf1ff40] lavfi.scene_score=0.310640[Parsed_metadata_1 @ 000002644bf1ff40] frame:18   pts:862208  pts_time:56.1333[Parsed_metadata_1 @ 000002644bf1ff40] lavfi.scene_score=0.334894frame=   19 fps=0.7 q=-0.0 size=N/A time=00:00:56.58 bitrate=N/A speed=2.19x    [Parsed_metadata_1 @ 000002644bf1ff40] frame:19   pts:873472  pts_time:56.8667[Parsed_metadata_1 @ 000002644bf1ff40] lavfi.scene_score=0.996496frame=   20 fps=0.8 q=-0.0 size=N/A time=00:00:57.19 bitrate=N/A speed=2.17x    [Parsed_metadata_1 @ 000002644bf1ff40] frame:20   pts:874496  pts_time:56.9333[Parsed_metadata_1 @ 000002644bf1ff40] lavfi.scene_score=0.411736[Parsed_metadata_1 @ 000002644bf1ff40] frame:21   pts:876032  pts_time:57.0333[Parsed_metadata_1 @ 000002644bf1ff40] lavfi.scene_score=0.547260[Parsed_metadata_1 @ 000002644bf1ff40] frame:22   pts:877056  pts_time:57.1[Parsed_metadata_1 @ 000002644bf1ff40] lavfi.scene_score=0.417534[Parsed_metadata_1 @ 000002644bf1ff40] frame:23   pts:888832  pts_time:57.8667[Parsed_metadata_1 @ 000002644bf1ff40] lavfi.scene_score=1.000000frame=   24 fps=0.9 q=-0.0 size=N/A time=00:00:58.21 bitrate=N/A speed=2.17x    [Parsed_metadata_1 @ 000002644bf1ff40] frame:24   pts:901632  pts_time:58.7[Parsed_metadata_1 @ 000002644bf1ff40] lavfi.scene_score=0.754101frame=   25 fps=0.9 q=-0.0 size=N/A time=00:00:59.00 bitrate=N/A speed=2.15x    [Parsed_metadata_1 @ 000002644bf1ff40] frame:25   pts:909824  pts_time:59.2333[Parsed_metadata_1 @ 000002644bf1ff40] lavfi.scene_score=0.529985frame=   26 fps=0.9 q=-0.0 size=N/A time=00:00:59.93 bitrate=N/A speed=2.14x    frame=   26 fps=0.9 q=-0.0 size=N/A time=00:01:01.25 bitrate=N/A speed=2.15x    frame=   26 fps=0.9 q=-0.0 size=N/A time=00:01:02.25 bitrate=N/A speed=2.15x    frame=   26 fps=0.9 q=-0.0 size=N/A time=00:01:03.32 bitrate=N/A speed=2.15x    frame=   26 fps=0.9 q=-0.0 size=N/A time=00:01:04.50 bitrate=N/A speed=2.15x    frame=   26 fps=0.9 q=-0.0 size=N/A time=00:01:05.17 bitrate=N/A speed=2.14x    frame=   26 fps=0.8 q=-0.0 size=N/A time=00:01:06.20 bitrate=N/A speed=2.13x    frame=   26 fps=0.8 q=-0.0 size=N/A time=00:01:07.31 bitrate=N/A speed=2.13x    frame=   26 fps=0.8 q=-0.0 size=N/A time=00:01:08.94 bitrate=N/A speed=2.14x    frame=   26 fps=0.8 q=-0.0 size=N/A time=00:01:09.54 bitrate=N/A speed=2.13x    frame=   26 fps=0.8 q=-0.0 size=N/A time=00:01:10.37 bitrate=N/A speed=2.12x    frame=   26 fps=0.8 q=-0.0 size=N/A time=00:01:11.63 bitrate=N/A speed=2.13x    frame=   26 fps=0.8 q=-0.0 size=N/A time=00:01:13.00 bitrate=N/A speed=2.14x    frame=   26 fps=0.7 q=-0.0 size=N/A time=00:01:14.67 bitrate=N/A speed=2.15x    frame=   26 fps=0.7 q=-0.0 size=N/A time=00:01:15.95 bitrate=N/A speed=2.15x    frame=   26 fps=0.7 q=-0.0 size=N/A time=00:01:17.48 bitrate=N/A speed=2.17x    frame=   26 fps=0.7 q=-0.0 size=N/A time=00:01:18.66 bitrate=N/A speed=2.17x    frame=   26 fps=0.7 q=-0.0 size=N/A time=00:01:19.94 bitrate=N/A speed=2.17x    frame=   26 fps=0.7 q=-0.0 size=N/A time=00:01:21.87 bitrate=N/A speed= 2.2x    frame=   26 fps=0.7 q=-0.0 size=N/A time=00:01:22.61 bitrate=N/A speed=2.19x    frame=   26 fps=0.7 q=-0.0 size=N/A time=00:01:23.96 bitrate=N/A speed=2.19x    frame=   26 fps=0.7 q=-0.0 size=N/A time=00:01:24.86 bitrate=N/A speed=2.19x    frame=   26 fps=0.7 q=-0.0 size=N/A time=00:01:26.00 bitrate=N/A speed=2.19x    frame=   26 fps=0.7 q=-0.0 size=N/A time=00:01:27.49 bitrate=N/A speed= 2.2x    frame=   26 fps=0.6 q=-0.0 size=N/A time=00:01:28.90 bitrate=N/A speed=2.21x    frame=   26 fps=0.6 q=-0.0 size=N/A time=00:01:30.53 bitrate=N/A speed=2.22x    [Parsed_metadata_1 @ 000002644bf1ff40] frame:26   pts:1394176 pts_time:90.7667[Parsed_metadata_1 @ 000002644bf1ff40] lavfi.scene_score=1.000000frame=   27 fps=0.7 q=-0.0 size=N/A time=00:01:32.02 bitrate=N/A speed=2.23x    frame=   27 fps=0.6 q=-0.0 size=N/A time=00:01:33.39 bitrate=N/A speed=2.23x    frame=   27 fps=0.6 q=-0.0 size=N/A time=00:01:34.62 bitrate=N/A speed=2.24x    frame=   27 fps=0.6 q=-0.0 size=N/A time=00:01:35.92 bitrate=N/A speed=2.24x    [Parsed_metadata_1 @ 000002644bf1ff40] frame:27   pts:1478656 pts_time:96.2667[Parsed_metadata_1 @ 000002644bf1ff40] lavfi.scene_score=1.000000frame=   28 fps=0.6 q=-0.0 size=N/A time=00:01:37.08 bitrate=N/A speed=2.24x    frame=   28 fps=0.6 q=-0.0 size=N/A time=00:01:38.45 bitrate=N/A speed=2.25x    frame=   28 fps=0.6 q=-0.0 size=N/A time=00:01:39.45 bitrate=N/A speed=2.24x    frame=   28 fps=0.6 q=-0.0 size=N/A time=00:01:40.21 bitrate=N/A speed=2.23x    frame=   28 fps=0.6 q=-0.0 size=N/A time=00:01:42.33 bitrate=N/A speed=2.26x    frame=   28 fps=0.6 q=-0.0 size=N/A time=00:01:44.23 bitrate=N/A speed=2.27x    frame=   28 fps=0.6 q=-0.0 size=N/A time=00:01:46.02 bitrate=N/A speed=2.29x    frame=   28 fps=0.6 q=-0.0 size=N/A time=00:01:47.53 bitrate=N/A speed=2.29x    frame=   28 fps=0.6 q=-0.0 size=N/A time=00:01:49.27 bitrate=N/A speed=2.31x    frame=   28 fps=0.6 q=-0.0 size=N/A time=00:01:50.24 bitrate=N/A speed= 2.3x    frame=   28 fps=0.6 q=-0.0 size=N/A time=00:01:51.43 bitrate=N/A speed= 2.3x    frame=   28 fps=0.6 q=-0.0 size=N/A time=00:01:53.15 bitrate=N/A speed=2.31x    frame=   28 fps=0.6 q=-0.0 size=N/A time=00:01:54.68 bitrate=N/A speed=2.32x    frame=   28 fps=0.6 q=-0.0 size=N/A time=00:01:55.98 bitrate=N/A speed=2.32x    frame=   28 fps=0.6 q=-0.0 size=N/A time=00:01:57.28 bitrate=N/A speed=2.33x    frame=   28 fps=0.5 q=-0.0 size=N/A time=00:01:58.51 bitrate=N/A speed=2.33x    frame=   28 fps=0.5 q=-0.0 size=N/A time=00:01:59.93 bitrate=N/A speed=2.33x    frame=   28 fps=0.5 q=-0.0 size=N/A time=00:02:01.57 bitrate=N/A speed=2.34x    frame=   28 fps=0.5 q=-0.0 size=N/A time=00:02:03.36 bitrate=N/A speed=2.35x    frame=   28 fps=0.5 q=-0.0 size=N/A time=00:02:05.10 bitrate=N/A speed=2.36x    frame=   28 fps=0.5 q=-0.0 size=N/A time=00:02:07.08 bitrate=N/A speed=2.38x    frame=   28 fps=0.5 q=-0.0 size=N/A time=00:02:08.94 bitrate=N/A speed=2.39x    frame=   28 fps=0.5 q=-0.0 size=N/A time=00:02:10.49 bitrate=N/A speed= 2.4x    frame=   28 fps=0.5 q=-0.0 size=N/A time=00:02:11.88 bitrate=N/A speed= 2.4x    frame=   28 fps=0.5 q=-0.0 size=N/A time=00:02:13.83 bitrate=N/A speed=2.41x    frame=   28 fps=0.5 q=-0.0 size=N/A time=00:02:15.67 bitrate=N/A speed=2.42x    frame=   28 fps=0.5 q=-0.0 size=N/A time=00:02:17.60 bitrate=N/A speed=2.44x    frame=   28 fps=0.5 q=-0.0 size=N/A time=00:02:19.59 bitrate=N/A speed=2.45x    frame=   28 fps=0.5 q=-0.0 size=N/A time=00:02:21.43 bitrate=N/A speed=2.46x    frame=   28 fps=0.5 q=-0.0 size=N/A time=00:02:24.24 bitrate=N/A speed=2.49x    frame=   28 fps=0.5 q=-0.0 size=N/A time=00:02:27.21 bitrate=N/A speed=2.51x    frame=   28 fps=0.5 q=-0.0 size=N/A time=00:02:30.37 bitrate=N/A speed=2.55x    frame=   28 fps=0.5 q=-0.0 size=N/A time=00:02:33.41 bitrate=N/A speed=2.58x    frame=   28 fps=0.5 q=-0.0 size=N/A time=00:02:36.47 bitrate=N/A speed=2.61x    frame=   28 fps=0.5 q=-0.0 size=N/A time=00:02:40.24 bitrate=N/A speed=2.65x    frame=   28 fps=0.5 q=-0.0 size=N/A time=00:02:44.81 bitrate=N/A speed= 2.7x    frame=   28 fps=0.5 q=-0.0 size=N/A time=00:02:50.01 bitrate=N/A speed=2.76x    frame=   28 fps=0.5 q=-0.0 size=N/A time=00:02:57.49 bitrate=N/A speed=2.86x    frame=   28 fps=0.4 q=-0.0 size=N/A time=00:03:06.47 bitrate=N/A speed=2.98x    frame=   28 fps=0.4 q=-0.0 size=N/A time=00:03:16.02 bitrate=N/A speed=3.11x    frame=   28 fps=0.4 q=-0.0 size=N/A time=00:03:25.86 bitrate=N/A speed=3.24x    frame=   28 fps=0.4 q=-0.0 size=N/A time=00:03:35.48 bitrate=N/A speed=3.36x    frame=   28 fps=0.4 q=-0.0 size=N/A time=00:03:43.28 bitrate=N/A speed=3.46x    frame=   28 fps=0.4 q=-0.0 size=N/A time=00:03:53.33 bitrate=N/A speed=3.59x    frame=   28 fps=0.4 q=-0.0 size=N/A time=00:04:02.62 bitrate=N/A speed= 3.7x    frame=   28 fps=0.4 q=-0.0 size=N/A time=00:04:13.23 bitrate=N/A speed=3.83x    frame=   28 fps=0.4 q=-0.0 size=N/A time=00:04:23.94 bitrate=N/A speed=3.96x    frame=   28 fps=0.4 q=-0.0 size=N/A time=00:04:33.25 bitrate=N/A speed=4.07x    frame=   28 fps=0.4 q=-0.0 size=N/A time=00:04:42.98 bitrate=N/A speed=4.19x    frame=   28 fps=0.4 q=-0.0 size=N/A time=00:04:53.24 bitrate=N/A speed=4.31x    frame=   28 fps=0.4 q=-0.0 size=N/A time=00:05:03.06 bitrate=N/A speed=4.42x    frame=   28 fps=0.4 q=-0.0 size=N/A time=00:05:13.53 bitrate=N/A speed=4.54x    [Parsed_metadata_1 @ 000002644bf1ff40] frame:28   pts:4952576 pts_time:322.433[Parsed_metadata_1 @ 000002644bf1ff40] lavfi.scene_score=0.414745frame=   29 fps=0.4 q=-0.0 size=N/A time=00:05:23.47 bitrate=N/A speed=4.65x    [Parsed_metadata_1 @ 000002644bf1ff40] frame:29   pts:4985856 pts_time:324.6[Parsed_metadata_1 @ 000002644bf1ff40] lavfi.scene_score=0.345787[Parsed_metadata_1 @ 000002644bf1ff40] frame:30   pts:5016064 pts_time:326.567[Parsed_metadata_1 @ 000002644bf1ff40] lavfi.scene_score=0.649530[Parsed_metadata_1 @ 000002644bf1ff40] frame:31   pts:5055488 pts_time:329.133[Parsed_metadata_1 @ 000002644bf1ff40] lavfi.scene_score=0.523245[Parsed_metadata_1 @ 000002644bf1ff40] frame:32   pts:5087744 pts_time:331.233[Parsed_metadata_1 @ 000002644bf1ff40] lavfi.scene_score=0.753900frame=   33 fps=0.5 q=-0.0 size=N/A time=00:05:32.57 bitrate=N/A speed=4.74x    [Parsed_metadata_1 @ 000002644bf1ff40] frame:33   pts:5122048 pts_time:333.467[Parsed_metadata_1 @ 000002644bf1ff40] lavfi.scene_score=0.471352frame=   34 fps=0.5 q=-0.0 size=N/A time=00:05:42.74 bitrate=N/A speed=4.86x    frame=   34 fps=0.5 q=-0.0 size=N/A time=00:05:52.31 bitrate=N/A speed=4.96x    frame=   34 fps=0.5 q=-0.0 size=N/A time=00:06:02.48 bitrate=N/A speed=5.06x    frame=   34 fps=0.5 q=-0.0 size=N/A time=00:06:12.44 bitrate=N/A speed=5.17x    frame=   34 fps=0.5 q=-0.0 size=N/A time=00:06:22.08 bitrate=N/A speed=5.26x    frame=   34 fps=0.5 q=-0.0 size=N/A time=00:06:32.83 bitrate=N/A speed=5.37x    frame=   34 fps=0.5 q=-0.0 size=N/A time=00:06:43.02 bitrate=N/A speed=5.48x    frame=   34 fps=0.5 q=-0.0 size=N/A time=00:06:54.01 bitrate=N/A speed=5.59x    frame=   34 fps=0.5 q=-0.0 size=N/A time=00:07:04.04 bitrate=N/A speed=5.68x    frame=   34 fps=0.5 q=-0.0 size=N/A time=00:07:13.70 bitrate=N/A speed=5.77x    frame=   34 fps=0.4 q=-0.0 size=N/A time=00:07:22.92 bitrate=N/A speed=5.86x    frame=   34 fps=0.4 q=-0.0 size=N/A time=00:07:30.60 bitrate=N/A speed=5.92x    frame=   34 fps=0.4 q=-0.0 size=N/A time=00:07:40.61 bitrate=N/A speed=6.01x    frame=   34 fps=0.4 q=-0.0 size=N/A time=00:07:48.18 bitrate=N/A speed=6.07x    frame=   34 fps=0.4 q=-0.0 size=N/A time=00:07:56.77 bitrate=N/A speed=6.14x    frame=   34 fps=0.4 q=-0.0 size=N/A time=00:08:04.36 bitrate=N/A speed= 6.2x    frame=   34 fps=0.4 q=-0.0 size=N/A time=00:08:11.40 bitrate=N/A speed=6.25x    [Parsed_metadata_1 @ 000002644bf1ff40] frame:34   pts:7631872 pts_time:496.867[Parsed_metadata_1 @ 000002644bf1ff40] lavfi.scene_score=0.508145frame=   35 fps=0.4 q=-0.0 size=N/A time=00:08:19.08 bitrate=N/A speed=6.31x    frame=   35 fps=0.4 q=-0.0 size=N/A time=00:08:26.14 bitrate=N/A speed=6.36x    frame=   35 fps=0.4 q=-0.0 size=N/A time=00:08:34.32 bitrate=N/A speed=6.42x    frame=   35 fps=0.4 q=-0.0 size=N/A time=00:08:41.14 bitrate=N/A speed=6.46x    frame=   35 fps=0.4 q=-0.0 size=N/A time=00:08:49.34 bitrate=N/A speed=6.52x    frame=   35 fps=0.4 q=-0.0 size=N/A time=00:08:56.63 bitrate=N/A speed=6.57x    frame=   35 fps=0.4 q=-0.0 size=N/A time=00:09:03.69 bitrate=N/A speed=6.62x    [Parsed_metadata_1 @ 000002644bf1ff40] frame:35   pts:8374784 pts_time:545.233[Parsed_metadata_1 @ 000002644bf1ff40] lavfi.scene_score=0.402625frame=   36 fps=0.4 q=-0.0 size=N/A time=00:09:12.30 bitrate=N/A speed=6.68x    frame=   36 fps=0.4 q=-0.0 size=N/A time=00:09:20.59 bitrate=N/A speed=6.74x    frame=   36 fps=0.4 q=-0.0 size=N/A time=00:09:28.81 bitrate=N/A speed= 6.8x    frame=   36 fps=0.4 q=-0.0 size=N/A time=00:09:37.61 bitrate=N/A speed=6.86x    frame=   36 fps=0.4 q=-0.0 size=N/A time=00:09:44.12 bitrate=N/A speed= 6.9x    frame=   36 fps=0.4 q=-0.0 size=N/A time=00:09:52.80 bitrate=N/A speed=6.96x    frame=   36 fps=0.4 q=-0.0 size=N/A time=00:10:01.65 bitrate=N/A speed=7.02x    [Parsed_metadata_1 @ 000002644bf1ff40] frame:36   pts:9325056 pts_time:607.1[Parsed_metadata_1 @ 000002644bf1ff40] lavfi.scene_score=0.514964frame=   37 fps=0.4 q=-0.0 size=N/A time=00:10:09.24 bitrate=N/A speed=7.07x    [Parsed_metadata_1 @ 000002644bf1ff40] frame:37   pts:9421312 pts_time:613.367[Parsed_metadata_1 @ 000002644bf1ff40] lavfi.scene_score=0.660997frame=   38 fps=0.4 q=-0.0 size=N/A time=00:10:16.37 bitrate=N/A speed=7.11x    [Parsed_metadata_1 @ 000002644bf1ff40] frame:38   pts:9539584 pts_time:621.067[Parsed_metadata_1 @ 000002644bf1ff40] lavfi.scene_score=0.391144[Parsed_metadata_1 @ 000002644bf1ff40] frame:39   pts:9584640 pts_time:624[Parsed_metadata_1 @ 000002644bf1ff40] lavfi.scene_score=0.308666frame=   40 fps=0.5 q=-0.0 size=N/A time=00:10:24.91 bitrate=N/A speed=7.17x    frame=   40 fps=0.5 q=-0.0 size=N/A time=00:10:32.07 bitrate=N/A speed=7.21x    [Parsed_metadata_1 @ 000002644bf1ff40] frame:40   pts:9719296 pts_time:632.767[Parsed_metadata_1 @ 000002644bf1ff40] lavfi.scene_score=0.572222[Parsed_metadata_1 @ 000002644bf1ff40] frame:41   pts:9729024 pts_time:633.4[Parsed_metadata_1 @ 000002644bf1ff40] lavfi.scene_score=0.493443[Parsed_metadata_1 @ 000002644bf1ff40] frame:42   pts:9781760 pts_time:636.833[Parsed_metadata_1 @ 000002644bf1ff40] lavfi.scene_score=0.304203[Parsed_metadata_1 @ 000002644bf1ff40] frame:43   pts:9812480 pts_time:638.833[Parsed_metadata_1 @ 000002644bf1ff40] lavfi.scene_score=0.322790frame=   44 fps=0.5 q=-0.0 size=N/A time=00:10:40.80 bitrate=N/A speed=7.27x    [Parsed_metadata_1 @ 000002644bf1ff40] frame:44   pts:9858560 pts_time:641.833[Parsed_metadata_1 @ 000002644bf1ff40] lavfi.scene_score=0.800440[Parsed_metadata_1 @ 000002644bf1ff40] frame:45   pts:9874432 pts_time:642.867[Parsed_metadata_1 @ 000002644bf1ff40] lavfi.scene_score=0.319335[Parsed_metadata_1 @ 000002644bf1ff40] frame:46   pts:9874944 pts_time:642.9[Parsed_metadata_1 @ 000002644bf1ff40] lavfi.scene_score=0.447156[Parsed_metadata_1 @ 000002644bf1ff40] frame:47   pts:9889792 pts_time:643.867[Parsed_metadata_1 @ 000002644bf1ff40] lavfi.scene_score=0.351608[Parsed_metadata_1 @ 000002644bf1ff40] frame:48   pts:9891328 pts_time:643.967[Parsed_metadata_1 @ 000002644bf1ff40] lavfi.scene_score=0.361801frame=   49 fps=0.6 q=-0.0 size=N/A time=00:10:48.53 bitrate=N/A speed=7.31x    frame=   49 fps=0.5 q=-0.0 size=N/A time=00:10:57.86 bitrate=N/A speed=7.38x    [Parsed_metadata_1 @ 000002644bf1ff40] frame:49   pts:10187264 pts_time:663.233[Parsed_metadata_1 @ 000002644bf1ff40] lavfi.scene_score=0.649133frame=   50 fps=0.6 q=-0.0 size=N/A time=00:11:06.96 bitrate=N/A speed=7.44x    frame=   50 fps=0.6 q=-0.0 size=N/A time=00:11:13.88 bitrate=N/A speed=7.47x    frame=   50 fps=0.6 q=-0.0 size=N/A time=00:11:19.74 bitrate=N/A speed= 7.5x    [Parsed_metadata_1 @ 000002644bf1ff40] frame:50   pts:10468864 pts_time:681.567[Parsed_metadata_1 @ 000002644bf1ff40] lavfi.scene_score=0.552899frame=   51 fps=0.6 q=-0.0 size=N/A time=00:11:28.16 bitrate=N/A speed=7.55x    frame=   51 fps=0.6 q=-0.0 size=N/A time=00:11:35.13 bitrate=N/A speed=7.58x    [Parsed_metadata_1 @ 000002644bf1ff40] frame:51   pts:10772480 pts_time:701.333[Parsed_metadata_1 @ 000002644bf1ff40] lavfi.scene_score=0.519592frame=   52 fps=0.6 q=-0.0 size=N/A time=00:11:43.88 bitrate=N/A speed=7.63x    [Parsed_metadata_1 @ 000002644bf1ff40] frame:52   pts:10826240 pts_time:704.833[Parsed_metadata_1 @ 000002644bf1ff40] lavfi.scene_score=0.555235frame=   53 fps=0.6 q=-0.0 size=N/A time=00:11:53.57 bitrate=N/A speed= 7.7x    frame=   53 fps=0.6 q=-0.0 size=N/A time=00:12:04.18 bitrate=N/A speed=7.77x    frame=   53 fps=0.6 q=-0.0 size=N/A time=00:12:12.65 bitrate=N/A speed=7.82x    frame=   53 fps=0.6 q=-0.0 size=N/A time=00:12:21.50 bitrate=N/A speed=7.87x    frame=   53 fps=0.6 q=-0.0 size=N/A time=00:12:30.65 bitrate=N/A speed=7.93x    frame=   53 fps=0.6 q=-0.0 size=N/A time=00:12:40.91 bitrate=N/A speed=7.99x    frame=   53 fps=0.6 q=-0.0 size=N/A time=00:12:50.36 bitrate=N/A speed=8.05x    frame=   53 fps=0.6 q=-0.0 size=N/A time=00:13:00.70 bitrate=N/A speed=8.12x    frame=   53 fps=0.5 q=-0.0 size=N/A time=00:13:08.50 bitrate=N/A speed=8.15x    frame=   53 fps=0.5 q=-0.0 size=N/A time=00:13:16.21 bitrate=N/A speed=8.19x    [Parsed_metadata_1 @ 000002644bf1ff40] frame:53   pts:12265472 pts_time:798.533[Parsed_metadata_1 @ 000002644bf1ff40] lavfi.scene_score=0.758867[Parsed_metadata_1 @ 000002644bf1ff40] frame:54   pts:12297216 pts_time:800.6[Parsed_metadata_1 @ 000002644bf1ff40] lavfi.scene_score=0.479836[Parsed_metadata_1 @ 000002644bf1ff40] frame:55   pts:12333568 pts_time:802.967[Parsed_metadata_1 @ 000002644bf1ff40] lavfi.scene_score=0.547835frame=   56 fps=0.6 q=-0.0 size=N/A time=00:13:25.61 bitrate=N/A speed=8.25x    [Parsed_metadata_1 @ 000002644bf1ff40] frame:56   pts:12371968 pts_time:805.467[Parsed_metadata_1 @ 000002644bf1ff40] lavfi.scene_score=0.490900[Parsed_metadata_1 @ 000002644bf1ff40] frame:57   pts:12416512 pts_time:808.367[Parsed_metadata_1 @ 000002644bf1ff40] lavfi.scene_score=0.602783[Parsed_metadata_1 @ 000002644bf1ff40] frame:58   pts:12448768 pts_time:810.467[Parsed_metadata_1 @ 000002644bf1ff40] lavfi.scene_score=0.755028[Parsed_metadata_1 @ 000002644bf1ff40] frame:59   pts:12478976 pts_time:812.433[Parsed_metadata_1 @ 000002644bf1ff40] lavfi.scene_score=0.492860frame=   60 fps=0.6 q=-0.0 size=N/A time=00:13:34.64 bitrate=N/A speed= 8.3x    [Parsed_metadata_1 @ 000002644bf1ff40] frame:60   pts:12515840 pts_time:814.833[Parsed_metadata_1 @ 000002644bf1ff40] lavfi.scene_score=0.658056[Parsed_metadata_1 @ 000002644bf1ff40] frame:61   pts:12596224 pts_time:820.067[Parsed_metadata_1 @ 000002644bf1ff40] lavfi.scene_score=0.572270frame=   62 fps=0.6 q=-0.0 size=N/A time=00:13:43.61 bitrate=N/A speed=8.34x    [Parsed_metadata_1 @ 000002644bf1ff40] frame:62   pts:12707840 pts_time:827.333[Parsed_metadata_1 @ 000002644bf1ff40] lavfi.scene_score=0.548640frame=   63 fps=0.6 q=-0.0 size=N/A time=00:13:50.64 bitrate=N/A speed=8.37x    [Parsed_metadata_1 @ 000002644bf1ff40] frame:63   pts:12825600 pts_time:835[Parsed_metadata_1 @ 000002644bf1ff40] lavfi.scene_score=0.739916frame=   64 fps=0.6 q=-0.0 size=N/A time=00:13:57.10 bitrate=N/A speed= 8.4x    frame=   64 fps=0.6 q=-0.0 size=N/A time=00:14:03.72 bitrate=N/A speed=8.42x    frame=   64 fps=0.6 q=-0.0 size=N/A time=00:14:11.17 bitrate=N/A speed=8.45x    [Parsed_metadata_1 @ 000002644bf1ff40] frame:64   pts:13084160 pts_time:851.833[Parsed_metadata_1 @ 000002644bf1ff40] lavfi.scene_score=0.311954[Parsed_metadata_1 @ 000002644bf1ff40] frame:65   pts:13084672 pts_time:851.867[Parsed_metadata_1 @ 000002644bf1ff40] lavfi.scene_score=0.316722[Parsed_metadata_1 @ 000002644bf1ff40] frame:66   pts:13206528 pts_time:859.8[Parsed_metadata_1 @ 000002644bf1ff40] lavfi.scene_score=0.885370frame=   67 fps=0.7 q=-0.0 size=N/A time=00:14:20.34 bitrate=N/A speed= 8.5x    frame=   67 fps=0.7 q=-0.0 size=N/A time=00:14:26.01 bitrate=N/A speed=8.51x    frame=   67 fps=0.7 q=-0.0 size=N/A time=00:14:33.18 bitrate=N/A speed=8.54x    [Parsed_metadata_1 @ 000002644bf1ff40] frame:67   pts:13410816 pts_time:873.1[Parsed_metadata_1 @ 000002644bf1ff40] lavfi.scene_score=0.317340[Parsed_metadata_1 @ 000002644bf1ff40] frame:68   pts:13432320 pts_time:874.5[Parsed_metadata_1 @ 000002644bf1ff40] lavfi.scene_score=0.534107[Parsed_metadata_1 @ 000002644bf1ff40] frame:69   pts:13433856 pts_time:874.6[Parsed_metadata_1 @ 000002644bf1ff40] lavfi.scene_score=0.596282frame=   70 fps=0.7 q=-0.0 size=N/A time=00:14:41.61 bitrate=N/A speed=8.58x    frame=   70 fps=0.7 q=-0.0 size=N/A time=00:14:50.88 bitrate=N/A speed=8.63x    frame=   70 fps=0.7 q=-0.0 size=N/A time=00:15:01.65 bitrate=N/A speed=8.69x    frame=   70 fps=0.7 q=-0.0 size=N/A time=00:15:11.22 bitrate=N/A speed=8.74x    frame=   70 fps=0.7 q=-0.0 size=N/A time=00:15:22.11 bitrate=N/A speed= 8.8x    frame=   70 fps=0.7 q=-0.0 size=N/A time=00:15:30.60 bitrate=N/A speed=8.84x    frame=   70 fps=0.7 q=-0.0 size=N/A time=00:15:41.40 bitrate=N/A speed= 8.9x    frame=   70 fps=0.7 q=-0.0 size=N/A time=00:15:51.13 bitrate=N/A speed=8.95x    frame=   70 fps=0.7 q=-0.0 size=N/A time=00:16:01.90 bitrate=N/A speed=9.01x    frame=   70 fps=0.7 q=-0.0 size=N/A time=00:16:12.75 bitrate=N/A speed=9.07x    frame=   70 fps=0.6 q=-0.0 size=N/A time=00:16:22.25 bitrate=N/A speed=9.12x    frame=   70 fps=0.6 q=-0.0 size=N/A time=00:16:31.28 bitrate=N/A speed=9.16x    frame=   70 fps=0.6 q=-0.0 size=N/A time=00:16:41.45 bitrate=N/A speed=9.21x    frame=   70 fps=0.6 q=-0.0 size=N/A time=00:16:51.67 bitrate=N/A speed=9.26x    frame=   70 fps=0.6 q=-0.0 size=N/A time=00:16:59.61 bitrate=N/A speed=9.29x    frame=   70 fps=0.6 q=-0.0 size=N/A time=00:17:07.66 bitrate=N/A speed=9.32x    frame=   70 fps=0.6 q=-0.0 size=N/A time=00:17:15.63 bitrate=N/A speed=9.35x    frame=   70 fps=0.6 q=-0.0 size=N/A time=00:17:24.64 bitrate=N/A speed=9.39x    frame=   70 fps=0.6 q=-0.0 size=N/A time=00:17:34.30 bitrate=N/A speed=9.43x    frame=   70 fps=0.6 q=-0.0 size=N/A time=00:17:44.47 bitrate=N/A speed=9.48x    frame=   70 fps=0.6 q=-0.0 size=N/A time=00:17:53.41 bitrate=N/A speed=9.52x    frame=   70 fps=0.6 q=-0.0 size=N/A time=00:18:02.37 bitrate=N/A speed=9.55x    [Parsed_metadata_1 @ 000002644bf1ff40] frame:70   pts:16691712 pts_time:1086.7[Parsed_metadata_1 @ 000002644bf1ff40] lavfi.scene_score=0.807135[Parsed_metadata_1 @ 000002644bf1ff40] frame:71   pts:16728064 pts_time:1089.07[Parsed_metadata_1 @ 000002644bf1ff40] lavfi.scene_score=0.731891frame=   72 fps=0.6 q=-0.0 size=N/A time=00:18:10.71 bitrate=N/A speed=9.59x    [Parsed_metadata_1 @ 000002644bf1ff40] frame:72   pts:16801280 pts_time:1093.83[Parsed_metadata_1 @ 000002644bf1ff40] lavfi.scene_score=0.702625[Parsed_metadata_1 @ 000002644bf1ff40] frame:73   pts:16852480 pts_time:1097.17[Parsed_metadata_1 @ 000002644bf1ff40] lavfi.scene_score=0.474735frame=   74 fps=0.6 q=-0.0 size=N/A time=00:18:20.71 bitrate=N/A speed=9.63x    [Parsed_metadata_1 @ 000002644bf1ff40] frame:74   pts:16966144 pts_time:1104.57[Parsed_metadata_1 @ 000002644bf1ff40] lavfi.scene_score=0.313758frame=   75 fps=0.7 q=-0.0 size=N/A time=00:18:28.63 bitrate=N/A speed=9.66x    [Parsed_metadata_1 @ 000002644bf1ff40] frame:75   pts:17145344 pts_time:1116.23[Parsed_metadata_1 @ 000002644bf1ff40] lavfi.scene_score=0.333861frame=   76 fps=0.7 q=-0.0 size=N/A time=00:18:37.01 bitrate=N/A speed=9.69x    frame=   76 fps=0.7 q=-0.0 size=N/A time=00:18:45.23 bitrate=N/A speed=9.72x    frame=   76 fps=0.7 q=-0.0 size=N/A time=00:18:52.90 bitrate=N/A speed=9.74x    [Parsed_metadata_1 @ 000002644bf1ff40] frame:76   pts:17466880 pts_time:1137.17[Parsed_metadata_1 @ 000002644bf1ff40] lavfi.scene_score=0.521884frame=   77 fps=0.7 q=-0.0 size=N/A time=00:18:59.75 bitrate=N/A speed=9.76x    frame=   77 fps=0.7 q=-0.0 size=N/A time=00:19:07.18 bitrate=N/A speed=9.78x    [Parsed_metadata_1 @ 000002644bf1ff40] frame:77   pts:17616896 pts_time:1146.93[Parsed_metadata_1 @ 000002644bf1ff40] lavfi.scene_score=0.460581frame=   78 fps=0.7 q=-0.0 size=N/A time=00:19:17.23 bitrate=N/A speed=9.82x    frame=   78 fps=0.7 q=-0.0 size=N/A time=00:19:26.75 bitrate=N/A speed=9.86x    frame=   78 fps=0.7 q=-0.0 size=N/A time=00:19:34.53 bitrate=N/A speed=9.89x    [Parsed_metadata_1 @ 000002644bf1ff40] frame:78   pts:18041344 pts_time:1174.57[Parsed_metadata_1 @ 000002644bf1ff40] lavfi.scene_score=0.614527[Parsed_metadata_1 @ 000002644bf1ff40] frame:79   pts:18042368 pts_time:1174.63[Parsed_metadata_1 @ 000002644bf1ff40] lavfi.scene_score=0.308133[Parsed_metadata_1 @ 000002644bf1ff40] frame:80   pts:18118144 pts_time:1179.57[Parsed_metadata_1 @ 000002644bf1ff40] lavfi.scene_score=0.747485frame=   81 fps=0.7 q=-0.0 size=N/A time=00:19:44.82 bitrate=N/A speed=9.93x    [Parsed_metadata_1 @ 000002644bf1ff40] frame:81   pts:18194944 pts_time:1184.57[Parsed_metadata_1 @ 000002644bf1ff40] lavfi.scene_score=0.565971[Parsed_metadata_1 @ 000002644bf1ff40] frame:82   pts:18271744 pts_time:1189.57[Parsed_metadata_1 @ 000002644bf1ff40] lavfi.scene_score=0.531859frame=   83 fps=0.7 q=-0.0 size=N/A time=00:19:55.10 bitrate=N/A speed=9.97x    